<svg xmlns="http://www.w3.org/2000/svg" width="800" height="800" viewBox="0 0 24 24" fill="#d96f6d" stroke-width="16" xmlns:v="https://vecta.io/nano"><path d="M18.53 19.24H5.4a.74.74 0 0 1-.71-.51L1.5 9a.73.73 0 0 1 .22-.8.74.74 0 0 1 .83-.1L8.37 11l3-5.82a.78.78 0 0 1 .67-.381.78.78 0 0 1 .67.381l3 5.83 5.83-2.9a.73.73 0 0 1 .82.1.75.75 0 0 1 .14.79l-3.26 9.72a.74.74 0 0 1-.71.52zM6 17.74h12l2.51-7.49-4.87 2.42a.74.74 0 0 1-.569.044.74.74 0 0 1-.431-.374L12 7.16l-2.63 5.18a.74.74 0 0 1-.431.374.74.74 0 0 1-.569-.044l-4.89-2.45L6 17.74z"/></svg>